<svg width="144" height="37" viewBox="0 0 144 37" fill="none" xmlns="http://www.w3.org/2000/svg">
<path d="M53.8438 8.27469H45.8752C45.3299 8.27469 44.8661 8.69155 44.7811 9.25799L41.5582 30.7594C41.4941 31.1836 41.8064 31.5661 42.2153 31.5661H46.0196C46.5649 31.5661 47.0287 31.1493 47.1138 30.5816L47.983 24.7824C48.0669 24.2147 48.5318 23.7978 49.0759 23.7978H51.5985C56.8477 23.7978 59.8771 21.125 60.6683 15.8284C61.0248 13.5112 60.6834 11.6905 59.6523 10.4154C58.5197 9.01523 56.5109 8.27469 53.8438 8.27469ZM54.7632 16.1276C54.3274 19.1363 52.1427 19.1363 50.0302 19.1363H48.8277L49.6713 13.5173C49.7214 13.1777 50.0011 12.9276 50.3273 12.9276H50.8785C52.3174 12.9276 53.6749 12.9276 54.3763 13.7907C54.7946 14.3057 54.9228 15.0707 54.7632 16.1276Z" fill="#253B80"/>
<path d="M77.6638 16.0307H73.8479C73.5228 16.0307 73.242 16.2808 73.1919 16.6205L73.0229 17.7435L72.7561 17.3365C71.93 16.0749 70.0878 15.6531 68.2492 15.6531C64.0324 15.6531 60.4308 19.0137 59.7294 23.7279C59.3647 26.0795 59.8832 28.3281 61.1509 29.8962C62.3138 31.3381 63.9776 31.9388 65.9573 31.9388C69.3549 31.9388 71.239 29.64 71.239 29.64L71.0689 30.7557C71.0048 31.1824 71.3171 31.5649 71.7238 31.5649H75.161C75.7075 31.5649 76.1689 31.148 76.2551 30.5804L78.3175 16.8375C78.3828 16.4145 78.0717 16.0307 77.6638 16.0307ZM72.3448 23.8456C71.9766 26.1396 70.2463 27.6795 68.0395 27.6795C66.9314 27.6795 66.0458 27.3056 65.4772 26.5969C64.9133 25.8931 64.6989 24.8914 64.8783 23.7757C65.222 21.5014 66.9815 19.9112 69.1545 19.9112C70.2382 19.9112 71.119 20.29 71.6993 21.0048C72.2807 21.727 72.5114 22.7348 72.3448 23.8456Z" fill="#253B80"/>
<path d="M97.9866 16.0307H94.152C93.7861 16.0307 93.4424 16.222 93.235 16.542L87.9462 24.7394L85.7044 16.862C85.5634 16.3691 85.1311 16.0307 84.6418 16.0307H80.8736C80.4156 16.0307 80.0976 16.5015 80.2432 16.9552L84.467 29.998L80.496 35.8965C80.1838 36.3612 80.4984 37 81.0379 37H84.8678C85.2313 37 85.5716 36.8136 85.7778 36.4998L98.5319 17.128C98.8372 16.6646 98.5237 16.0307 97.9866 16.0307Z" fill="#253B80"/>
<path d="M110.682 8.27469H102.712C102.168 8.27469 101.704 8.69155 101.619 9.25799L98.3966 30.7594C98.3325 31.1836 98.6447 31.5661 99.0514 31.5661H103.141C103.521 31.5661 103.846 31.2743 103.906 30.8771L104.82 24.7824C104.904 24.2147 105.369 23.7978 105.913 23.7978H108.435C113.685 23.7978 116.713 21.125 117.506 15.8284C117.863 13.5112 117.519 11.6905 116.488 10.4154C115.357 9.01523 113.349 8.27469 110.682 8.27469ZM111.602 16.1276C111.167 19.1363 108.982 19.1363 106.869 19.1363H105.667L106.512 13.5173C106.562 13.1777 106.839 12.9276 107.167 12.9276H107.718C109.156 12.9276 110.514 12.9276 111.216 13.7907C111.634 14.3057 111.761 15.0707 111.602 16.1276Z" fill="#179BD7"/>
<path d="M134.502 16.0307H130.688C130.361 16.0307 130.083 16.2808 130.034 16.6205L129.865 17.7435L129.597 17.3365C128.771 16.0749 126.93 15.6531 125.091 15.6531C120.874 15.6531 117.274 19.0137 116.572 23.7279C116.209 26.0795 116.725 28.3281 117.993 29.8962C119.158 31.3381 120.819 31.9388 122.799 31.9388C126.197 31.9388 128.081 29.64 128.081 29.64L127.911 30.7557C127.847 31.1824 128.159 31.5649 128.568 31.5649H132.004C132.548 31.5649 133.012 31.148 133.097 30.5804L135.16 16.8375C135.223 16.4145 134.911 16.0307 134.502 16.0307ZM129.183 23.8456C128.817 26.1396 127.085 27.6795 124.878 27.6795C123.772 27.6795 122.884 27.3056 122.316 26.5969C121.752 25.8931 121.539 24.8914 121.717 23.7757C122.063 21.5014 123.82 19.9112 125.993 19.9112C127.076 19.9112 127.957 20.29 128.538 21.0048C129.121 21.727 129.352 22.7348 129.183 23.8456Z" fill="#179BD7"/>
<path d="M139 8.86443L135.73 30.7594C135.665 31.1836 135.978 31.5661 136.384 31.5661H139.673C140.219 31.5661 140.683 31.1493 140.767 30.5816L143.992 9.08144C144.056 8.65722 143.744 8.27347 143.337 8.27347H139.655C139.33 8.27469 139.05 8.52481 139 8.86443Z" fill="#179BD7"/>
<path d="M8.4653 35.7446L9.07469 31.6716L7.71725 31.6385H1.23535L5.73994 1.58411C5.75392 1.49338 5.79936 1.40878 5.86578 1.3487C5.9322 1.28863 6.01725 1.25552 6.10581 1.25552H17.0352C20.6636 1.25552 23.1675 2.05001 24.4749 3.61814C25.0878 4.35378 25.4781 5.12251 25.6669 5.9685C25.8649 6.85616 25.8684 7.9167 25.675 9.2102L25.661 9.3046V10.1334L26.2739 10.4988C26.7901 10.7869 27.2002 11.1167 27.5148 11.4943C28.0392 12.1233 28.3782 12.9227 28.5216 13.8704C28.6695 14.8452 28.6206 16.005 28.3782 17.3181C28.0986 18.8286 27.6465 20.1442 27.0359 21.2207C26.4743 22.2126 25.7589 23.0352 24.9095 23.6728C24.0985 24.2785 23.1349 24.7382 22.0455 25.0325C20.9898 25.3218 19.7862 25.4677 18.466 25.4677H17.6155C17.0072 25.4677 16.4165 25.6982 15.9528 26.1114C15.4878 26.5332 15.1802 27.1094 15.0859 27.7396L15.0218 28.1062L13.9451 35.2848L13.8962 35.5484C13.8834 35.6318 13.8613 35.6735 13.8286 35.7017C13.7995 35.7274 13.7575 35.7446 13.7168 35.7446H8.4653Z" fill="#253B80"/>
<path d="M26.855 9.40024C26.8224 9.6197 26.7851 9.84407 26.7432 10.0746C25.3018 17.8613 20.3708 20.5512 14.073 20.5512H10.8664C10.0962 20.5512 9.44721 21.1398 9.32719 21.9391L7.68545 32.8952L7.22055 36.0008C7.14248 36.5256 7.52699 36.9988 8.03035 36.9988H13.7176C14.3911 36.9988 14.9632 36.4839 15.0692 35.785L15.1251 35.481L16.1959 28.3306L16.2647 27.9383C16.3695 27.2369 16.9428 26.722 17.6163 26.722H18.4669C23.977 26.722 28.2905 24.368 29.5512 17.556C30.0779 14.7103 29.8053 12.3342 28.4117 10.6631C27.9899 10.1592 27.4667 9.74108 26.855 9.40024Z" fill="#179BD7"/>
<path d="M25.3477 8.76758C25.1275 8.70014 24.9003 8.63884 24.6672 8.58367C24.433 8.52972 24.193 8.4819 23.946 8.44022C23.0814 8.29309 22.1341 8.22321 21.1193 8.22321H12.5529C12.342 8.22321 12.1415 8.27347 11.9621 8.3642C11.5671 8.56405 11.2735 8.95762 11.2024 9.43946L9.38007 21.5848L9.32764 21.9391C9.44765 21.1397 10.0967 20.5512 10.8668 20.5512H14.0734C20.3712 20.5512 25.3023 17.86 26.7436 10.0746C26.7867 9.84406 26.8228 9.61969 26.8555 9.40022C26.4908 9.1967 26.0958 9.0226 25.6705 8.87424C25.5656 8.83746 25.4572 8.80191 25.3477 8.76758Z" fill="#222D65"/>
<path d="M11.202 9.43943C11.2731 8.95759 11.5667 8.56402 11.9617 8.3654C12.1423 8.27467 12.3416 8.22441 12.5525 8.22441H21.1189C22.1338 8.22441 23.0811 8.29429 23.9456 8.44142C24.1926 8.4831 24.4327 8.53092 24.6669 8.58487C24.8999 8.64004 25.1271 8.70134 25.3473 8.76878C25.4569 8.80311 25.5652 8.83866 25.6712 8.87422C26.0965 9.02257 26.4915 9.1979 26.8562 9.4002C27.285 6.52264 26.8527 4.56339 25.3741 2.78929C23.744 0.836173 20.802 0 17.0373 0H6.10787C5.33885 0 4.68285 0.588508 4.564 1.38913L0.0116388 31.7525C-0.0780801 32.3533 0.362358 32.8952 0.937958 32.8952H7.68552L9.37969 21.5848L11.202 9.43943Z" fill="#253B80"/>
</svg>
