<svg width="200" height="200" viewBox="0 0 200 200" fill="none" xmlns="http://www.w3.org/2000/svg">
<g clip-path="url(#clip0_38_30)">
<path d="M100 200C155.228 200 200 155.228 200 100C200 44.7715 155.228 0 100 0C44.7715 0 0 44.7715 0 100C0 155.228 44.7715 200 100 200Z" fill="#002469"/>
<path d="M158.13 149.576L149.905 159.329H133.207C136.024 156.753 137.905 153.329 138.544 149.576H158.13Z" fill="white"/>
<path d="M134.237 146.588C134.237 153.435 130.343 159.047 123.491 159.306H85.716L82.5089 152.494L81.1362 149.553L79.503 146.071H76.2367L71.7042 136.435H86.1894C87.2308 136.435 88.0829 135.6 88.0829 134.553C88.0829 134.059 87.8817 133.576 87.5385 133.224C87.1835 132.871 86.6983 132.671 86.1894 132.659H65.9291L67.7042 136.424L68.1302 137.329L72.2367 146.082L73.006 147.729L73.8699 149.576L78.4498 159.329H53.5977L50.3314 152.376L49.0178 149.576L47.3847 146.094L42.8521 136.459L41.4438 133.471V133.294L41.6095 132.694L44.2249 122.953H53.6095L50.9941 132.694L50.6983 133.8L51.9646 136.482L53.6569 140.071L56.4971 146.118L58.1302 149.6H63.5859L61.9527 146.118L57.4202 136.471L55.645 132.706L55.6214 132.694L58.2367 122.976H88.0829C92.8048 124.247 96.4498 127.988 97.574 132.718C97.8344 133.753 97.9646 134.812 97.9527 135.882C97.9527 136.082 97.9527 136.282 97.9291 136.482C97.7634 140.282 95.9054 143.812 92.8758 146.118C92.0711 146.741 91.2072 147.259 90.2723 147.659L91.1835 149.6H120.166C121.136 149.6 121.917 148.824 121.917 147.859C121.917 146.894 121.136 146.118 120.166 146.118H98.4498C100.592 143.353 101.811 139.976 101.941 136.482H115.243C115.894 136.494 116.497 136.153 116.84 135.6C117.03 135.306 117.124 134.976 117.136 134.635V134.6C117.136 133.565 116.284 132.718 115.243 132.718H101.633C100.899 128.906 98.864 125.471 95.8699 122.976H121.184C121.444 122.976 121.704 123 121.953 123.012C125.846 123.435 128.663 126.918 128.237 130.8C128.071 132.329 127.408 133.753 126.343 134.871C131.112 136.824 134.237 141.459 134.237 146.588Z" fill="white"/>
<path d="M141.148 133.235C140.793 133.588 140.604 134.059 140.604 134.553C140.604 135.588 141.456 136.435 142.497 136.435H158.201V146.071H138.213V146.047C138.178 143.2 137.065 140.035 134.462 136.447C133.16 134.682 132.485 132.541 132.545 130.353V130.212V129.976C132.675 126.047 135.917 122.918 139.882 122.929H158.201V132.671H142.497C142 132.682 141.515 132.882 141.148 133.235Z" fill="white"/>
<path d="M100 31.7647H99.7752C99.4675 31.7647 99.1717 31.7647 98.864 31.7882H98.3196V31.8118C66.1066 32.6 40.6391 59.2118 41.4439 91.2471C41.5977 97.2941 42.6983 103.282 44.7101 108.988C44.7101 109.153 44.7693 109.318 44.8758 109.447C46.0711 112.729 47.5504 115.906 49.3137 118.918H150.225C151.988 115.894 153.468 112.729 154.663 109.447C154.769 109.318 154.828 109.153 154.828 108.988C165.491 78.7412 149.468 45.6235 119.041 35.0235C112.911 32.8941 106.485 31.8 100 31.7647ZM97.4557 83.6471L91.0296 90.1412V117.729H83.9172V83.3765L90.6865 76.5412L97.4557 83.3765V83.6471ZM90.6865 75.2353L86.6391 79.3176H81.7634C82.0474 76.4706 82.4024 73.7647 82.8521 71.2H98.3669V79.3176H94.7575L90.6865 75.2353ZM83.3728 61.5882C82.6865 64.1765 82.0829 66.8941 81.5859 69.7059H69.29C69.6095 68.5647 69.9764 67.4471 70.3551 66.3412C70.9231 64.7177 71.5267 63.1529 72.1894 61.5882H83.3728ZM72.8403 60.0706C74.1302 57.2706 75.6095 54.5529 77.2782 51.9529H86.3906C85.4675 54.4706 84.5799 57.2 83.787 60.0706H72.8403ZM83.1125 69.7059C83.6569 66.7765 84.2841 64.0706 84.9468 61.5882H98.3669V69.7059H83.1125ZM85.3492 60.0706C86.2368 56.9294 87.1598 54.2 88.0119 51.9529H98.3551V60.0706H85.3492ZM88.6036 50.4353C88.7456 50.0706 88.8876 49.7177 89.0297 49.3765C90.0119 46.9647 91.1243 44.6118 92.3551 42.3294H98.3551V50.4471L88.6036 50.4353ZM86.9705 50.4353H78.2841C78.7338 49.8 79.1717 49.1529 79.6332 48.5294C81.2427 46.3412 82.9941 44.2706 84.8876 42.3176H90.6154C89.2545 44.9647 88.0356 47.6706 86.9705 50.4353ZM76.4498 50.4353H67.7752C68.6273 49.5177 69.4912 48.6353 70.3788 47.7529C72.4143 45.7882 74.5918 43.9647 76.8876 42.3059H82.793C80.4734 44.8471 78.3433 47.5647 76.4498 50.4353ZM75.4794 51.9529C73.8699 54.5529 72.4261 57.2706 71.1835 60.0706H60.6036C62.3078 57.2 64.2604 54.4941 66.4261 51.9529H75.4794ZM70.5208 61.5882C69.4083 64.2353 68.4616 66.9412 67.6805 69.7059H56.0356C56.5563 68.2588 57.148 66.8471 57.787 65.4353C58.3906 64.1294 59.0415 62.8471 59.7279 61.5882H70.5208ZM67.2782 71.2118C66.5918 73.8824 66.0592 76.6 65.6687 79.3294H53.5149C53.9882 76.5765 54.6628 73.8706 55.5267 71.2118H67.2782ZM72.2959 90.4588H79.7279C79.7279 93.2235 79.7634 95.9294 79.8462 98.5765H77.1125V95.2706L72.2959 90.4588ZM76.2012 95.9059L72.0711 100.012V117.718H67.4794V95.6471L71.8581 91.2941L76.2368 95.6471V95.9059H76.2012ZM66.651 95.1647C66.5563 93.6 66.4734 92.0235 66.4734 90.4588H71.3847L66.651 95.1647ZM79.7279 88.9529H66.4734C66.4971 86.2353 66.6746 83.5294 66.9941 80.8353H80.0829C79.8699 83.4941 79.7515 86.1882 79.7279 88.9529ZM65.4557 80.8471C65.1362 83.5412 64.9586 86.2471 64.935 88.9647H52.6036C52.6391 86.2471 52.8521 83.5412 53.2545 80.8471H65.4557ZM64.935 90.4588C64.9586 93.2235 65.1362 95.9294 65.4202 98.5765H53.006C52.7456 95.9529 52.6273 93.2471 52.6036 90.4588H64.935ZM65.6214 100.094C65.8581 102 66.1894 103.859 66.5681 105.682V108.212H54.5799C53.9646 105.529 53.5149 102.824 53.2072 100.094H65.6214ZM77.1125 100.094H79.8936C79.9882 102.882 80.1302 105.588 80.3433 108.212H77.1243V100.094H77.1125ZM80.2249 79.3176H67.1953C67.5977 76.5882 68.1421 73.8706 68.8521 71.2H81.3018C80.8521 73.8353 80.4971 76.5529 80.2249 79.3176ZM81.6214 80.8353H85.1243L82.9941 83V88.9529H81.2545C81.2782 86.1529 81.3965 83.4471 81.6214 80.8353ZM96.2249 80.8353H98.3433V82.9765L96.2249 80.8353ZM98.3433 34.1412V40.8118H93.1835C93.8936 39.5882 94.6746 38.4118 95.503 37.2706C96.3196 36.1177 97.2782 35.0706 98.3433 34.1412ZM91.432 40.8118H86.4379C89.2427 38.0706 92.4971 35.8353 96.0711 34.2C94.2841 36.2235 92.722 38.4471 91.432 40.8118ZM84.2368 40.8118H79.077C83.0178 38.1765 87.3255 36.1177 91.8581 34.6824C89.0888 36.4235 86.5326 38.4941 84.2368 40.8118ZM77.6687 37.7059C80.8876 36.3529 84.2249 35.3059 87.645 34.5647C83.6687 36.2118 79.8936 38.3177 76.4024 40.8118H71.4083C73.432 39.6588 75.5267 38.6235 77.6687 37.7059ZM59.6214 49.8235C62.4498 47 65.574 44.4941 68.935 42.3294H74.3788C71.2427 44.7529 68.3551 47.4706 65.7515 50.4471H59.0178C59.219 50.2353 59.4202 50.0353 59.6214 49.8235ZM57.5859 51.9412H64.4616C62.3669 54.4824 60.4971 57.2 58.864 60.0588H51.4557C53.2427 57.1765 55.29 54.4588 57.5859 51.9529V51.9412ZM47.4202 67.7765C48.3196 65.6471 49.3492 63.5765 50.5208 61.5882H58.0001C56.6036 64.2 55.4083 66.9177 54.4379 69.7059H46.6628C46.8995 69.0706 47.1598 68.4353 47.432 67.7882L47.4202 67.7765ZM46.1184 71.2H53.9409C53.0888 73.8588 52.4379 76.5647 51.9646 79.3176H43.9409C44.4734 76.5647 45.1953 73.8588 46.1184 71.2118V71.2ZM43.6805 80.8353H51.716C51.3373 83.5294 51.1362 86.2353 51.0888 88.9529H42.9705C43.0178 86.2353 43.2427 83.5294 43.6805 80.8471V80.8353ZM42.9705 90.4471H51.0888C51.1125 93.2471 51.2545 95.9529 51.4912 98.5647H43.6569C43.2308 95.8824 43.006 93.1765 42.9705 90.4588V90.4471ZM43.9291 100.082H51.6569C51.9646 102.812 52.4143 105.518 53.006 108.2H46.0711C45.1598 105.553 44.4379 102.847 43.9409 100.094L43.9291 100.082ZM50.2249 117.388C48.8285 114.929 47.6332 112.365 46.6391 109.718H53.3728C54.0119 112.318 54.8166 114.882 55.7752 117.388H50.2249ZM54.935 109.718H66.5681V117.388H57.4202C56.4143 114.894 55.5859 112.341 54.9468 109.729L54.935 109.718ZM77.1007 117.388V109.718H80.4498C80.6746 112.376 80.935 114.941 81.2782 117.388H77.1007ZM81.2545 90.4471H83.0178V98.5647H81.3965C81.3018 95.9647 81.2545 93.2706 81.2545 90.4471ZM81.4202 100.082H82.9941V108.2H81.8699C81.6805 105.647 81.5385 102.918 81.4202 100.082ZM81.9764 109.718H82.9823V117.388H82.8048C82.4853 115 82.2012 112.435 81.9764 109.718ZM156.58 88.9412H147.231C147.195 86.2235 146.994 83.5177 146.604 80.8235H155.87C156.32 83.5177 156.568 86.2353 156.58 88.9412ZM155.633 79.3059H146.391C145.917 76.5529 145.266 73.8471 144.414 71.1882H153.456C154.402 73.8471 155.124 76.5647 155.633 79.3059ZM132.675 79.3059C132.284 76.5765 131.74 73.8588 131.065 71.1882H142.817C143.681 73.8471 144.355 76.5529 144.828 79.3059H132.675ZM145.089 80.8353C145.479 83.5294 145.692 86.2353 145.728 88.9529H133.408C133.385 86.2353 133.219 83.5294 132.888 80.8353H145.089ZM121.491 90.4471H126.982L121.905 95.4941V98.5529H121.503L121.491 90.4471ZM121.491 100.082H121.894V108.2H121.491V100.082ZM127.337 100.224V117.729H122.805V95.8941L127.112 91.6118L131.42 95.8941V96.1529L127.337 100.224ZM127.255 90.4471H131.894C131.87 91.9294 131.811 93.3882 131.716 94.8706L127.255 90.4471ZM130.663 69.6941C129.882 66.9294 128.935 64.2235 127.823 61.5765H138.604C139.29 62.8353 139.953 64.1177 140.544 65.4235C141.184 66.8235 141.775 68.2471 142.296 69.6941H130.663ZM127.172 60.0588C125.917 57.2706 124.473 54.5529 122.876 51.9412H131.917C134.095 54.4706 136.047 57.1882 137.74 60.0588H127.172ZM121.894 50.4235C120.012 47.5412 117.894 44.8235 115.55 42.3059H121.456C123.752 43.9647 125.929 45.7882 127.965 47.7529C128.876 48.6118 129.74 49.5177 130.568 50.4353H121.905L121.894 50.4235ZM118.734 48.5177C119.195 49.1412 119.645 49.7765 120.083 50.4235H111.408C110.343 47.6471 109.124 44.9412 107.74 42.3059H113.468C115.373 44.2588 117.136 46.3412 118.746 48.5294L118.734 48.5177ZM121.077 51.9412C122.734 54.5412 124.213 57.2588 125.515 60.0588H114.58C113.775 57.1765 112.911 54.4706 111.976 51.9412H121.077ZM126.166 61.5765C126.828 63.1177 127.432 64.7059 128 66.3294C128.379 67.4471 128.746 68.5765 129.065 69.6941H116.781C116.26 66.8706 115.657 64.1647 114.994 61.5765H126.166ZM129.491 71.2C130.201 73.8706 130.757 76.5765 131.148 79.3176H118.118C117.858 76.5294 117.491 73.8235 117.053 71.2H129.491ZM118.249 80.8353H131.361C131.692 83.5294 131.858 86.2353 131.882 88.9529H121.479V87.3529L118.462 84.3529C118.426 83.1882 118.367 82.0118 118.26 80.8471L118.249 80.8353ZM120.592 87.7177V87.9765L116.509 92.0588V117.718H111.965V87.7412L116.272 83.4588L120.592 87.7177ZM110.438 100.094H111.065V108.212H110.438V100.094ZM111.041 98.5765H110.414V95.5177L105.337 90.4706H111.041V98.5765ZM109.515 95.9059V96.1647L105.42 100.235V117.741H100.888V95.9059L105.195 91.6235L109.515 95.9059ZM110.438 109.729H111.065V117.4H110.438V109.729ZM121.503 109.729H121.905V117.4H121.503V109.729ZM132.343 102.694C132.485 101.835 132.627 100.953 132.722 100.094H145.16C144.852 102.824 144.391 105.529 143.787 108.212H132.343V102.694ZM132.923 98.5765C133.231 95.8824 133.385 93.1765 133.408 90.4588H145.74C145.716 93.2471 145.574 95.9529 145.337 98.5765H132.923ZM152.935 69.7059H143.929C142.947 66.9177 141.752 64.2 140.367 61.5882H149.077C150.568 64.1882 151.858 66.9059 152.935 69.7059ZM142 51.9529C144.284 54.4706 146.343 57.1882 148.142 60.0706H139.515C137.882 57.2118 136 54.4941 133.917 51.9529H142ZM140.036 49.8941C140.213 50.0706 140.402 50.2588 140.58 50.4588H132.615C130.012 47.4824 127.124 44.7647 123.988 42.3412H130.639C134.036 44.5177 137.184 47.0471 140.036 49.8941ZM128.178 40.8235H121.953C118.118 38.0706 113.941 35.8118 109.515 34.1177C116.083 35.2235 122.402 37.4941 128.178 40.8235ZM119.266 40.8235H114.107C111.811 38.4941 109.255 36.4353 106.485 34.6941C111.018 36.1294 115.314 38.1882 119.266 40.8235ZM111.905 40.8235H106.911C105.633 38.4471 104.071 36.2353 102.272 34.2118C105.846 35.8471 109.112 38.0824 111.905 40.8235ZM100 34.1529C101.077 35.0706 102.036 36.1177 102.84 37.2824C103.669 38.4235 104.45 39.6118 105.16 40.8235H100V34.1529ZM100 42.3294H106C107.243 44.6118 108.343 46.9765 109.326 49.3765C109.468 49.7177 109.61 50.0588 109.752 50.4353H99.9764V42.3176L100 42.3294ZM100 51.9647H110.331C111.172 54.2118 112.107 56.9294 112.994 60.0824H100V51.9647ZM100 61.6H113.42C114.083 64.0824 114.71 66.7882 115.255 69.7177H100.024V61.6H100ZM100 71.2118H115.515C115.953 73.7765 116.32 76.4824 116.604 79.3294H100V71.2118ZM100 80.8471H116.722C116.781 81.4706 116.817 82.1059 116.864 82.7647L116.26 82.1647L111.041 87.3529V88.9529H100V80.8471ZM105.077 90.4588L100 95.5059V90.4588H105.077ZM140.947 117.4H132.343V109.729H143.408C142.757 112.341 141.929 114.906 140.947 117.4ZM149.349 117.4H142.58C143.539 114.894 144.343 112.329 144.982 109.729H152.947C151.941 112.376 150.746 114.941 149.349 117.4ZM153.503 108.212H145.337C145.929 105.529 146.391 102.824 146.686 100.094H155.633C155.124 102.847 154.414 105.565 153.503 108.212ZM155.905 98.5765H146.852C147.089 95.9765 147.231 93.2706 147.255 90.4588H156.58C156.556 93.1765 156.331 95.8941 155.905 98.5765Z" fill="white"/>
</g>
<defs>
<clipPath id="clip0_38_30">
<rect width="200" height="200" fill="white"/>
</clipPath>
</defs>
</svg>
